<svg height="512pt" viewBox="-16 0 512 512" width="512pt" xmlns="http://www.w3.org/2000/svg"><path d="m467.101562 401.601562-149.703124 105c-.898438.597657-1.5 1.199219-2.398438 1.5-4.503906 2.699219-9.601562 3.898438-15 3.898438h-90.902344c-12 0-23.699218-3-33.601562-7.800781l-115.496094-52.199219-30-96.597656 30-83.402344h56.699219c15 0 29.398437 4.5 41.699219 12.597656l71.101562 47.402344h85.5c16.5 0 30 13.5 30 30s-13.5 30-30 30h-120c-8.402344 0-15 6.597656-15 15s6.597656 15 15 15h133.5c3 0 5.699219-.902344 8.097656-2.101562 0 0 0-.296876.300782-.296876 6.300781-4.800781 93-65.101562 96-67.203124 13.5-9.597657 32.101562-6.300782 41.699218 7.5 10.5 15.601562 4.203125 33.601562-7.496094 41.703124zm0 0" fill="#ffcebf"/><path d="m315 392v-60c16.5 0 30 13.5 30 30s-13.5 30-30 30zm0 0" fill="#ffbfab"/><path d="m467.101562 401.601562-149.703124 105c-.898438.597657-1.5 1.199219-2.398438 1.5v-86.101562h13.5c2.996094 0 5.699219-.902344 8.097656-2.101562 0 0 0-.296876.300782-.296876 6.300781-4.800781 93-65.101562 96-67.203124 13.5-9.597657 32.097656-6.300782 41.699218 7.5 10.5 15.601562 4.203125 33.601562-7.496094 41.703124zm0 0" fill="#ffbfab"/><path d="m390 167c0 18.898438-7.199219 37.199219-20.398438 51-5.402343 5.699219-8.101562 14.398438-9 24l-45.601562 30-45-30c-.300781-8.699219-4.199219-17.402344-11.699219-26.101562-16.199219-18.597657-21.898437-43.199219-15.898437-67.5 6.597656-27 29.097656-48.898438 56.398437-54.597657 5.398438-1.199219 10.800781-1.800781 16.199219-1.800781 17.402344 0 33.898438 5.699219 47.402344 16.800781 17.398437 14.398438 27.597656 35.398438 27.597656 58.199219zm0 0" fill="#ffd400"/><path d="m390 167c0 18.898438-7.199219 37.199219-20.398438 51-5.402343 5.699219-8.101562 14.398438-9 24l-45.601562 30v-180c17.402344 0 33.898438 5.699219 47.402344 16.800781 17.398437 14.398438 27.597656 35.398438 27.597656 58.199219zm0 0" fill="#ff9f00"/><path d="m330 15v32c0 8.402344-6.597656 15-15 15s-15-6.597656-15-15v-32c0-8.402344 6.597656-15 15-15s15 6.597656 15 15zm0 0" fill="#ffd400"/><path d="m195 182h-30c-8.289062 0-15-6.710938-15-15s6.710938-15 15-15h30c8.289062 0 15 6.710938 15 15s-6.710938 15-15 15zm0 0" fill="#ffd400"/><path d="m465 182h-30c-8.289062 0-15-6.710938-15-15s6.710938-15 15-15h30c8.289062 0 15 6.710938 15 15s-6.710938 15-15 15zm0 0" fill="#fdbf00"/><path d="m389.253906 92.746094c-5.859375-5.859375-5.859375-15.351563 0-21.210938l21.210938-21.210937c5.859375-5.859375 15.351562-5.859375 21.210937 0s5.859375 15.351562 0 21.210937l-21.210937 21.210938c-5.859375 5.859375-15.351563 5.859375-21.210938 0zm0 0" fill="#fdbf00"/><path d="m219.535156 92.746094-21.210937-21.210938c-5.859375-5.859375-5.859375-15.351562 0-21.210937s15.351562-5.859375 21.210937 0l21.210938 21.210937c5.859375 5.859375 5.859375 15.351563 0 21.210938s-15.351563 5.859375-21.210938 0zm0 0" fill="#ffd400"/><path d="m38.292969 480.398438-32.226563-23.902344c-3.816406-2.828125-6.066406-7.296875-6.066406-12.046875v-157.449219c0-8.285156 6.714844-15 15-15h45v194.980469c0 11.152343-11.734375 18.402343-21.707031 13.417969zm0 0" fill="#54469d"/><path d="m360.601562 242c0 1.5-.601562 2.699219-.601562 4.5v10.5c0 24.902344-20.097656 45-45 45-25.199219 0-45-20.699219-45-47.101562v-12.898438zm0 0" fill="#deecf1"/><path d="m315 62v-62c8.402344 0 15 6.597656 15 15v32c0 8.402344-6.597656 15-15 15zm0 0" fill="#fdbf00"/><path d="m315 302v-60h45.601562c0 1.5-.601562 2.699219-.601562 4.5v10.5c0 24.902344-20.097656 45-45 45zm0 0" fill="#a8d3d8"/></svg>